<?xml version="1.0" encoding="UTF-8"?>
<!DOCTYPE svg PUBLIC "-//W3C//DTD SVG 1.1//EN" "http://www.w3.org/Graphics/SVG/1.1/DTD/svg11.dtd">
<svg xmlns="http://www.w3.org/2000/svg" version="1.1" width="295px" height="295px" style="shape-rendering:geometricPrecision; text-rendering:geometricPrecision; image-rendering:optimizeQuality; fill-rule:evenodd; clip-rule:evenodd" xmlns:xlink="http://www.w3.org/1999/xlink">
<g><path style="opacity:0.492" fill="#000000" d="M 144.5,32.5 C 148.131,32.1604 151.464,32.9937 154.5,35C 180,60.5 205.5,86 231,111.5C 233.63,117.561 232.464,122.727 227.5,127C 174.916,128.658 122.25,128.991 69.5,128C 62.2996,123.63 60.7996,117.797 65,110.5C 91.0902,83.9082 117.59,57.9082 144.5,32.5 Z"/></g>
<g><path style="opacity:0.983" fill="#000000" d="M 70.5,169.5 C 121.834,169.333 173.168,169.5 224.5,170C 231.8,173.438 233.967,178.938 231,186.5C 205.167,212.333 179.333,238.167 153.5,264C 149.5,266 145.5,266 141.5,264C 115.667,238.167 89.8333,212.333 64,186.5C 61.1711,178.837 63.3377,173.17 70.5,169.5 Z"/></g>
</svg>
