<?xml version="1.0" encoding="UTF-8"?>
<!DOCTYPE svg PUBLIC "-//W3C//DTD SVG 1.1//EN" "http://www.w3.org/Graphics/SVG/1.1/DTD/svg11.dtd">
<svg xmlns="http://www.w3.org/2000/svg" version="1.1" width="295px" height="295px" style="shape-rendering:geometricPrecision; text-rendering:geometricPrecision; image-rendering:optimizeQuality; fill-rule:evenodd; clip-rule:evenodd" xmlns:xlink="http://www.w3.org/1999/xlink">
<g><path style="opacity:0.983" fill="#000000" d="M 143.5,32.5 C 146.978,32.1842 150.312,32.6842 153.5,34C 179.333,59.8333 205.167,85.6667 231,111.5C 233.967,119.062 231.8,124.562 224.5,128C 173.167,128.667 121.833,128.667 70.5,128C 63.2,124.562 61.0334,119.062 64,111.5C 90.395,84.938 116.895,58.6046 143.5,32.5 Z"/></g>
<g><path style="opacity:0.492" fill="#000000" d="M 69.5,169.5 C 121.501,169.333 173.501,169.5 225.5,170C 232.7,174.37 234.2,180.203 230,187.5C 204.833,212.667 179.667,237.833 154.5,263C 149.833,266.333 145.167,266.333 140.5,263C 115,237.5 89.5,212 64,186.5C 61.1496,179.219 62.983,173.553 69.5,169.5 Z"/></g>
</svg>
